# xmcd
#
# Track frame offsets:
#	150
#	6712
#	17090
#	21665
#	32652
#	38610
#	53027
#	63185
#	74152
#	81967
#	102327
#	115612
#	131165
#	137967
#	149100
#	165682
#	176815
#
# Disc length: 2565 seconds
#
# Revision: 0
# Processed by: cddbd v1.5.1PL2 Copyright (c) Steve Scherf et al.
# Submitted via: dBpowerAMP V4.0
#
DISCID=020a0311
DTITLE=Tammy Wynette - Singing My Song
DYEAR=1900
DGENRE=
TTITLE0=Welcome To My World
TTITLE1=Another Chance
TTITLE2=Your Good Girl's Gonna Go Bad
TTITLE3=D.I.V.O.R.C.E
TTITLE4=Singing My Song
TTITLE5=Till I Can't Make It On My Own
TTITLE6=Womanhood
TTITLE7=I Still Believe In Fairy Tales
TTITLE8=When The Grass Grows Over Me
TTITLE9=Medley (Amazing Grace, I'll Fly Away, Will The Circle Be Unbroken, I Saw The Light)
TTITLE10=Stand By Your Man
TTITLE11=Alive And Well
TTITLE12=Medley (What A Difference You Made In My Life,You Light My Life)
TTITLE13=Making Love
TTITLE14=You And Me
TTITLE15=Take Me To Your World
TTITLE16=Crying In The Rain
EXTD=
EXTT0=
EXTT1=
EXTT2=
EXTT3=
EXTT4=
EXTT5=
EXTT6=
EXTT7=
EXTT8=
EXTT9=
EXTT10=
EXTT11=
EXTT12=
EXTT13=
EXTT14=
EXTT15=
EXTT16=
PLAYORDER=
